<?xml version="1.0" encoding="UTF-8"?>
<svg width="20px" height="31px" viewBox="0 0 20 31" version="1.1" xmlns="http://www.w3.org/2000/svg"
    xmlns:xlink="http://www.w3.org/1999/xlink">
    <title>Combined Shape</title>
    <g id="Symbols" stroke="none" stroke-width="1" fill="none" fill-rule="evenodd">
        <g id="MOL/Map/Marker/default" transform="translate(-6.000000, 0.000000)" fill="#AFC91D"
            stroke="#69923A">
            <path
                d="M16,0.5 C18.6233526,0.5 20.9983526,1.56332372 22.7175144,3.28248558 C24.4366763,5.00164744 25.5,7.37664744 25.5,10 C25.5,14.7170375 18.0855719,26.7631833 16.0769479,29.9465793 C13.9487219,26.8174182 6.5,14.7254525 6.5,10 C6.5,7.37664744 7.56332372,5.00164744 9.28248558,3.28248558 C11.0016474,1.56332372 13.3766474,0.5 16,0.5 Z M16,5.5 C14.7573593,5.5 13.6323593,6.00367966 12.8180195,6.81801948 C12.0036797,7.63235931 11.5,8.75735931 11.5,10 C11.5,11.2426407 12.0036797,12.3676407 12.8180195,13.1819805 C13.6323593,13.9963203 14.7573593,14.5 16,14.5 C17.2426407,14.5 18.3676407,13.9963203 19.1819805,13.1819805 C19.9963203,12.3676407 20.5,11.2426407 20.5,10 C20.5,8.75735931 19.9963203,7.63235931 19.1819805,6.81801948 C18.3676407,6.00367966 17.2426407,5.5 16,5.5 Z"
                id="Combined-Shape"></path>
        </g>
    </g>
</svg>